<svg xmlns="http://www.w3.org/2000/svg" viewBox="0 0 24 24" id="data-square"><path d="M17.2,7.75h3.6A1.953,1.953,0,0,0,22.75,5.8V4.2A1.953,1.953,0,0,0,20.8,2.25H17.2A1.953,1.953,0,0,0,15.25,4.2v.05H9.75V4A2.752,2.752,0,0,0,7,1.25H4A2.752,2.752,0,0,0,1.25,4V6A2.752,2.752,0,0,0,4,8.75H7A2.752,2.752,0,0,0,9.75,6V5.75h2V18a2.752,2.752,0,0,0,2.75,2.75h.75v.05a1.953,1.953,0,0,0,1.95,1.95h3.6a1.953,1.953,0,0,0,1.95-1.95V19.2a1.953,1.953,0,0,0-1.95-1.95H17.2a1.953,1.953,0,0,0-1.95,1.95v.05H14.5A1.252,1.252,0,0,1,13.25,18V13.25h2v.05a1.953,1.953,0,0,0,1.95,1.95h3.6a1.953,1.953,0,0,0,1.95-1.95V11.7A1.953,1.953,0,0,0,20.8,9.75H17.2a1.953,1.953,0,0,0-1.95,1.95v.05h-2v-6h2V5.8A1.953,1.953,0,0,0,17.2,7.75ZM16.75,4.2a.456.456,0,0,1,.45-.45h3.6a.456.456,0,0,1,.45.45V5.8a.456.456,0,0,1-.45.45H17.2a.456.456,0,0,1-.45-.45ZM8.25,6A1.252,1.252,0,0,1,7,7.25H4A1.252,1.252,0,0,1,2.75,6V4A1.252,1.252,0,0,1,4,2.75H7A1.252,1.252,0,0,1,8.25,4Zm8.5,13.2a.456.456,0,0,1,.45-.45h3.6a.456.456,0,0,1,.45.45v1.6a.456.456,0,0,1-.45.45H17.2a.456.456,0,0,1-.45-.45Zm0-7.5a.456.456,0,0,1,.45-.45h3.6a.456.456,0,0,1,.45.45v1.6a.456.456,0,0,1-.45.45H17.2a.456.456,0,0,1-.45-.45Z" data-name="1"></path></svg>