<svg xmlns="http://www.w3.org/2000/svg" width="24" height="24" fill="none" id="graduation-cap"><path fill="#14171A" fill-rule="evenodd" d="M13.314 3.647a2.747 2.747 0 0 0-2.63 0c-1.723.938-5.381 2.93-7.635 4.155a1.75 1.75 0 0 0 .214 3.173l7.757 2.955c.63.24 1.327.24 1.958 0l7.757-2.955a1.75 1.75 0 0 0 .214-3.173l-7.635-4.155Zm-.717 1.317L20.23 9.12a.25.25 0 0 1-.03.453l-7.757 2.955a1.252 1.252 0 0 1-.89 0L3.797 9.573a.25.25 0 0 1-.03-.453L11.4 4.964a1.25 1.25 0 0 1 1.196 0Z" clip-rule="evenodd"></path><path fill="#14171A" fill-rule="evenodd" d="M4.248 13.5V16a4.75 4.75 0 0 0 4.75 4.75h6a4.75 4.75 0 0 0 4.75-4.75v-2.5a.75.75 0 0 0-1.5 0V16a3.25 3.25 0 0 1-3.25 3.25h-6A3.25 3.25 0 0 1 5.748 16v-2.5a.75.75 0 0 0-1.5 0zM20.25 10v4a.75.75 0 0 0 1.5 0v-4a.75.75 0 0 0-1.5 0z" clip-rule="evenodd"></path></svg>