<svg xmlns="http://www.w3.org/2000/svg" xmlns:xlink="http://www.w3.org/1999/xlink" version="1.1" width="612pt" height="792pt" viewBox="0 0 612 792">
<defs>
<clipPath id="clip_0">
<path d="M28.349999 13.427734H305.09999V82.521488H28.349999Z" fill-rule="evenodd"/>
</clipPath>
<clipPath id="clip_1">
<path d="M305.09999 13.427734H596.1V77.63867H305.09999Z" fill-rule="evenodd"/>
</clipPath>
<clipPath id="clip_2">
<path d="M28.349999 88.426639H595.35V103.07508H28.349999Z" fill-rule="evenodd"/>
</clipPath>
<clipPath id="clip_3">
<path d="M28.349999 113.5907H446.84999V167.30164H28.349999Z" fill-rule="evenodd"/>
</clipPath>
<clipPath id="clip_4">
<path d="M446.84999 113.5907H595.35V127.01843H446.84999Z" fill-rule="evenodd"/>
</clipPath>
<clipPath id="clip_5">
<path d="M28.349999 167.30164H446.84999V207.58484H28.349999Z" fill-rule="evenodd"/>
</clipPath>
<clipPath id="clip_6">
<path d="M446.84999 167.30164H595.35V194.1571H446.84999Z" fill-rule="evenodd"/>
</clipPath>
<clipPath id="clip_7">
<path d="M28.349999 207.58484H446.84999V247.86804H28.349999Z" fill-rule="evenodd"/>
</clipPath>
<clipPath id="clip_8">
<path d="M446.84999 207.58484H595.35V221.01258H446.84999Z" fill-rule="evenodd"/>
</clipPath>
<clipPath id="clip_9">
<path d="M28.349999 247.86804H446.84999V301.57899H28.349999Z" fill-rule="evenodd"/>
</clipPath>
<clipPath id="clip_10">
<path d="M446.84999 247.86804H595.35V274.7235H446.84999Z" fill-rule="evenodd"/>
</clipPath>
<clipPath id="clip_11">
<path d="M28.349999 301.57899H595.35V316.22743H28.349999Z" fill-rule="evenodd"/>
</clipPath>
<clipPath id="clip_12">
<path d="M28.349999 316.97743H462.59999V357.26063H28.349999Z" fill-rule="evenodd"/>
</clipPath>
<clipPath id="clip_13">
<path d="M462.59999 316.97743H595.35V363.9745H462.59999Z" fill-rule="evenodd"/>
</clipPath>
<clipPath id="clip_14">
<path d="M28.349999 363.9745H595.35V489.39637H28.349999Z" fill-rule="evenodd"/>
</clipPath>
<clipPath id="clip_15">
<path d="M28.349999 489.39637H462.59999V516.25186H28.349999Z" fill-rule="evenodd"/>
</clipPath>
<clipPath id="clip_16">
<path d="M462.59999 489.39637H595.35V522.9657H462.59999Z" fill-rule="evenodd"/>
</clipPath>
<clipPath id="clip_17">
<path d="M28.349999 522.9657H595.35V614.3114H28.349999Z" fill-rule="evenodd"/>
</clipPath>
<clipPath id="clip_18">
<path d="M28.349999 614.3114H595.35V628.95986H28.349999Z" fill-rule="evenodd"/>
</clipPath>
<clipPath id="clip_19">
<path d="M28.349999 640.577H457.34999V694.28799H28.349999Z" fill-rule="evenodd"/>
</clipPath>
<clipPath id="clip_20">
<path d="M457.34999 640.577H595.35V674.14639H457.34999Z" fill-rule="evenodd"/>
</clipPath>
<clipPath id="clip_21">
<path d="M28.349999 694.6395H595.35V709.28799H28.349999Z" fill-rule="evenodd"/>
</clipPath>
<clipPath id="clip_22">
<path d="M28.349999 721.28799H595.35V773.76028H28.349999Z" fill-rule="evenodd"/>
</clipPath>
</defs>
<path transform="matrix(.75,0,0,.75,0,0)" d="M0 0H816V1056H0Z" fill="#ffffff"/>
<g clip-path="url(#clip_0)">
<text xml:space="preserve" transform="matrix(.75 0 0 .75 33.6 18.677735)" font-size="38.666669" font-family="Calibri" font-weight="bold"><tspan y="37.533857" x="0 20.460633 39.54338 53.28447 62.778657 83.560169">Carlos</tspan></text>
<text xml:space="preserve" transform="matrix(.75 0 0 .75 33.6 18.677735)" font-size="38.666669" font-family="Calibri" font-weight="bold"><tspan y="37.533857" x="107.72032 124.06618 143.52643 158.9474 179.69116 189.18535">Lespin</tspan></text>
<text xml:space="preserve" transform="matrix(.75 0 0 .75 33.6 54.078126)" font-size="25.333334" font-family="Calibri"><tspan y="24.591147" x="0 11.6375889 24.994217 32.723756 41.207689 59.02884 71.16112 79.65735">Software</tspan></text>
<text xml:space="preserve" transform="matrix(.75 0 0 .75 33.6 54.078126)" font-size="25.333334" font-family="Calibri"><tspan y="24.591147" x="97.98563 113.56836 126.04689 137.23921 149.84145 155.65406 169.01068 182.31784 202.55066 215.1529 228.22502">Development</tspan></text>
</g>
<g clip-path="url(#clip_1)">
<text xml:space="preserve" transform="matrix(.75 0 0 .75 310.34999 32.10547)" font-size="14.666667" font-family="Calibri"><tspan y="14.2369799" x="195.86392 201.93959 208.95999 214.06964 217.43314 225.16202 230.89427 234.59412 237.95761 245.24996 250.98221 258.68247 262.04597 269.74623 273.44606 279.17829 282.54179 285.90528 292.31007 299.33045 312.43379 319.33253 331.04035 338.06074 341.42424 344.78773 348.48756 354.56324 362.2921">carlos.lespin.silva@gmail.com</tspan></text>
<text xml:space="preserve" transform="matrix(.75 0 0 .75 310.34999 45.533205)" font-size="14.666667" font-family="Calibri"><tspan y="14.2369799" x="290.74278 298.17109 305.5994 313.0277 317.51478 324.94309 332.3714 339.7997 344.28675 351.71507 359.14338 366.5717">787-988-9447</tspan></text>
<text xml:space="preserve" transform="matrix(.75 0 0 .75 310.34999 58.960939)" font-size="14.666667" font-family="Calibri"><tspan y="14.2369799" x="251.41144 258.31019 261.67369 266.58296 274.2832 281.98347 289.68373 293.38356 299.45924 307.1881 318.89595 324.55665 332.3714 339.39179 342.75529 350.0476 355.77986 359.14335 366.57167">github.com/Calesi19</tspan></text>
</g>
<g clip-path="url(#clip_2)">
<text xml:space="preserve" transform="matrix(.75 0 0 .75 33.6 88.426639)" font-size="16" font-family="Calibri" font-weight="bold"><tspan y="15.53125" x="0 8.512 17.367188 28.03125 33.32725 40.898439 49.445314 57.289064">PROJECTS</tspan></text>
</g>
<g clip-path="url(#clip_3)">
<text xml:space="preserve" transform="matrix(.75 0 0 .75 33.6 113.5907)" font-size="14.666667" font-family="Calibri" font-weight="bold"><tspan y="14.2369799" x="0 6.197418 14.076584 20.209595 26.843262 34.22148 39.43132 48.677354 56.542207">LockerHub</tspan></text>
<text xml:space="preserve" transform="matrix(.75 0 0 .75 33.6 127.01843)" font-size="14.666667" font-family="Calibri"><tspan y="14.2369799" x="0 12.5308079 20.25969 27.959946 31.32344 34.686937">Mobile</tspan></text>
<text xml:space="preserve" transform="matrix(.75 0 0 .75 33.6 127.01843)" font-size="14.666667" font-family="Calibri"><tspan y="14.2369799" x="45.29268 52.31308 60.013338 67.71359 71.07709 74.44058 80.51625 87.40059 92.30986 95.673358 103.40224">application</tspan></text>
<text xml:space="preserve" transform="matrix(.75 0 0 .75 33.6 127.01843)" font-size="14.666667" font-family="Calibri"><tspan y="14.2369799" x="114.41589 121.436298 124.79979 136.50762 143.79996">aimed</tspan></text>
<text xml:space="preserve" transform="matrix(.75 0 0 .75 33.6 127.01843)" font-size="14.666667" font-family="Calibri"><tspan y="14.2369799" x="154.81362 161.69795">at</tspan></text>
<text xml:space="preserve" transform="matrix(.75 0 0 .75 33.6 127.01843)" font-size="14.666667" font-family="Calibri"><tspan y="14.2369799" x="169.92063 175.65288 179.01638 190.7242 198.42446 201.78795 205.15145 209.69579 216.32975 219.69324 227.3935">simplifying</tspan></text>
<text xml:space="preserve" transform="matrix(.75 0 0 .75 33.6 127.01843)" font-size="14.666667" font-family="Calibri"><tspan y="14.2369799" x="237.60564 243.17317 247.93921 255.66809 260.47697 267.49739 274.27436">storage</tspan></text>
<text xml:space="preserve" transform="matrix(.75 0 0 .75 33.6 127.01843)" font-size="14.666667" font-family="Calibri"><tspan y="14.2369799" x="284.8801 288.2436 295.97248 302.1699 308.3598 315.65217">locker</tspan></text>
<text xml:space="preserve" transform="matrix(.75 0 0 .75 33.6 127.01843)" font-size="14.666667" font-family="Calibri"><tspan y="14.2369799" x="324.0752 328.9915 336.2838 343.84803 348.57826 355.59864 358.96214 364.6944">rentals.</tspan></text>
<text xml:space="preserve" transform="matrix(.75 0 0 .75 33.6 127.01843)" font-size="14.666667" font-family="Calibri"><tspan y="14.2369799" x="371.70768 378.84974 386.55">The</tspan></text>
<text xml:space="preserve" transform="matrix(.75 0 0 .75 33.6 127.01843)" font-size="14.666667" font-family="Calibri"><tspan y="14.2369799" x="397.15574 404.17616 411.8764">app</tspan></text>
<text xml:space="preserve" transform="matrix(.75 0 0 .75 33.6 127.01843)" font-size="14.666667" font-family="Calibri"><tspan y="14.2369799" x="422.89006 426.25355 433.81776 438.56947 445.86183 452.76057 457.56944 464.45378 469.2055 476.49787">integrates</tspan></text>
<text xml:space="preserve" transform="matrix(.75 0 0 .75 33.6 127.01843)" font-size="14.666667" font-family="Calibri"><tspan y="14.2369799" x="485.54347 493.2437 498.97596 506.2683">user</tspan></text>
<text xml:space="preserve" transform="matrix(.75 0 0 .75 33.6 140.44617)" font-size="14.666667" font-family="Calibri"><tspan y="14.2369799" x="0 7.020401 14.720657 19.629929 27.330185 34.622529 42.18672 47.095994 50.459489 56.535158 63.419496 68.328769 71.69226 79.42114 87.1214">authentication,</tspan></text>
<text xml:space="preserve" transform="matrix(.75 0 0 .75 33.6 140.44617)" font-size="14.666667" font-family="Calibri"><tspan y="14.2369799" x="94.091709 97.4552 105.18408 111.3815 117.57143 124.86377">locker</tspan></text>
<text xml:space="preserve" transform="matrix(.75 0 0 .75 33.6 140.44617)" font-size="14.666667" font-family="Calibri"><tspan y="14.2369799" x="133.28682 138.20311 145.49546 151.2277 158.52005 163.76576 170.17057 177.0549 181.96417 185.32767 193.05655 200.7568">reservation,</tspan></text>
<text xml:space="preserve" transform="matrix(.75 0 0 .75 33.6 140.44617)" font-size="14.666667" font-family="Calibri"><tspan y="14.2369799" x="207.72711 214.74752 222.44777">and</tspan></text>
<text xml:space="preserve" transform="matrix(.75 0 0 .75 33.6 140.44617)" font-size="14.666667" font-family="Calibri"><tspan y="14.2369799" x="233.46143 239.19368 246.48603 252.68344 260.3837 265.3">secure</tspan></text>
<text xml:space="preserve" transform="matrix(.75 0 0 .75 33.6 140.44617)" font-size="14.666667" font-family="Calibri"><tspan y="14.2369799" x="275.90574 279.26924 286.9981 293.19554 299.38545 306.6778">locker</tspan></text>
<text xml:space="preserve" transform="matrix(.75 0 0 .75 33.6 140.44617)" font-size="14.666667" font-family="Calibri"><tspan y="14.2369799" x="315.10084 322.12123 328.31864 334.51606 341.8084 347.54066 353.2729">access.</tspan></text>
</g>
<g clip-path="url(#clip_4)">
<text xml:space="preserve" transform="matrix(.75 0 0 .75 452.09999 113.5907)" font-size="14.666667" font-family="Calibri" font-weight="bold"><tspan y="14.2369799" x="33.54541 40.2724 43.872056 51.736909 56.646059 61.54805 68.92627 73.06189">Flutter,</tspan></text>
<text xml:space="preserve" transform="matrix(.75 0 0 .75 452.09999 113.5907)" font-size="14.666667" font-family="Calibri" font-weight="bold"><tspan y="14.2369799" x="80.153858 89.49292 97.372089 103.5695 110.804599 118.66945 125.83313">GoLang,</tspan></text>
<text xml:space="preserve" transform="matrix(.75 0 0 .75 452.09999 113.5907)" font-size="14.666667" font-family="Calibri" font-weight="bold"><tspan y="14.2369799" x="132.9251 139.65209 143.25174 148.29686 155.67508 163.53993 170.77503 176.62178">Firebase</tspan></text>
</g>
<g clip-path="url(#clip_5)">
<text xml:space="preserve" transform="matrix(.75 0 0 .75 33.6 167.30164)" font-size="14.666667" font-family="Calibri" font-weight="bold"><tspan y="14.2369799" x="0 12.759445 20.137665 27.930909 33.777666 37.37732 42.279314 49.65753">Websites</tspan></text>
<text xml:space="preserve" transform="matrix(.75 0 0 .75 33.6 180.72937)" font-size="14.666667" font-family="Calibri"><tspan y="14.2369799" x="0 3.692688 7.1562349 13.632645">I&#x2019;ve</tspan></text>
<text xml:space="preserve" transform="matrix(.75 0 0 .75 33.6 180.72937)" font-size="14.666667" font-family="Calibri"><tspan y="14.2369799" x="24.238389 31.938645 39.6389 43.002397 46.36589">built</tspan></text>
<text xml:space="preserve" transform="matrix(.75 0 0 .75 33.6 180.72937)" font-size="14.666667" font-family="Calibri"><tspan y="14.2369799" x="54.588563 66.29639 73.99664 77.36014 82.26941 85.632907 93.33316 96.696659">multiple</tspan></text>
<text xml:space="preserve" transform="matrix(.75 0 0 .75 33.6 180.72937)" font-size="14.666667" font-family="Calibri"><tspan y="14.2369799" x="107.3024 117.65042 124.942768 132.57141 138.30367 141.66716 146.41889 153.71123 159.44348">websites,</tspan></text>
<text xml:space="preserve" transform="matrix(.75 0 0 .75 33.6 180.72937)" font-size="14.666667" font-family="Calibri"><tspan y="14.2369799" x="166.41379 173.43419 176.79769">all</tspan></text>
<text xml:space="preserve" transform="matrix(.75 0 0 .75 33.6 180.72937)" font-size="14.666667" font-family="Calibri"><tspan y="14.2369799" x="183.47458 190.76692 202.47475 210.175 213.5385 221.1886 227.82256 231.18605 238.8863">employing</tspan></text>
<text xml:space="preserve" transform="matrix(.75 0 0 .75 33.6 180.72937)" font-size="14.666667" font-family="Calibri"><tspan y="14.2369799" x="249.09845 255.89693 263.6258 271.35469">good</tspan></text>
<text xml:space="preserve" transform="matrix(.75 0 0 .75 33.6 180.72937)" font-size="14.666667" font-family="Calibri"><tspan y="14.2369799" x="282.36836 289.10249 296.02967">SEO</tspan></text>
<text xml:space="preserve" transform="matrix(.75 0 0 .75 33.6 180.72937)" font-size="14.666667" font-family="Calibri"><tspan y="14.2369799" x="309.04713 316.74739 321.55625 328.57667 334.77409 339.68336 343.04685 349.24427 356.53663">practices</tspan></text>
<text xml:space="preserve" transform="matrix(.75 0 0 .75 33.6 180.72937)" font-size="14.666667" font-family="Calibri"><tspan y="14.2369799" x="365.58229 372.60267 380.30293">and</tspan></text>
<text xml:space="preserve" transform="matrix(.75 0 0 .75 33.6 180.72937)" font-size="14.666667" font-family="Calibri"><tspan y="14.2369799" x="391.3166 399.01686 404.74909 412.04145 416.7214 421.20845 427.40586 434.69819 442.2624 447.17167 452.2813 455.6448">user-centric</tspan></text>
<text xml:space="preserve" transform="matrix(.75 0 0 .75 33.6 180.72937)" font-size="14.666667" font-family="Calibri"><tspan y="14.2369799" x="465.15565 472.8559 480.14826 485.8805 489.244 496.14274 503.843 509.57527">designs.</tspan></text>
</g>
<g clip-path="url(#clip_6)">
<text xml:space="preserve" transform="matrix(.75 0 0 .75 452.09999 167.30164)" font-size="14.666667" font-family="Calibri" font-weight="bold"><tspan y="14.2369799" x="8.232697 17.47873 24.73529 37.545198 43.95746">HTML,</tspan></text>
<text xml:space="preserve" transform="matrix(.75 0 0 .75 452.09999 167.30164)" font-size="14.666667" font-family="Calibri" font-weight="bold"><tspan y="14.2369799" x="51.049425 58.80693 65.7343 72.66167">CSS,</tspan></text>
<text xml:space="preserve" transform="matrix(.75 0 0 .75 452.09999 167.30164)" font-size="14.666667" font-family="Calibri" font-weight="bold"><tspan y="14.2369799" x="79.75363 84.60565 91.63306 98.35274 105.58783 111.434589 117.5676 122.777439 126.37709 134.18465 139.26567">Javascript,</tspan></text>
<text xml:space="preserve" transform="matrix(.75 0 0 .75 452.09999 167.30164)" font-size="14.666667" font-family="Calibri" font-weight="bold"><tspan y="14.2369799" x="146.35764 154.39409 161.77231 169.0074 175.14041 180.22144">React,</tspan></text>
<text xml:space="preserve" transform="matrix(.75 0 0 .75 452.09999 180.72937)" font-size="14.666667" font-family="Calibri" font-weight="bold"><tspan y="14.2369799" x="147.1808 153.94345 160.74192 168.12014 171.71979 176.62178">Svelte</tspan></text>
</g>
<g clip-path="url(#clip_7)">
<text xml:space="preserve" transform="matrix(.75 0 0 .75 33.6 207.58484)" font-size="14.666667" font-family="Calibri" font-weight="bold"><tspan y="14.2369799" x="0 9.238876 16.617096 23.565934 28.611054 35.989274">Degree</tspan></text>
<text xml:space="preserve" transform="matrix(.75 0 0 .75 33.6 207.58484)" font-size="14.666667" font-family="Calibri" font-weight="bold"><tspan y="14.2369799" x="46.680894 54.48134 58.080995 65.316089 73.18094 81.04579 88.42401">Planner</tspan></text>
<text xml:space="preserve" transform="matrix(.75 0 0 .75 33.6 207.58484)" font-size="14.666667" font-family="Calibri" font-weight="bold"><tspan y="14.2369799" x="96.94725 103.87462 110.00763 114.8952 122.130298 129.99515 137.37337">Scraper</tspan></text>
<text xml:space="preserve" transform="matrix(.75 0 0 .75 33.6 221.01258)" font-size="14.666667" font-family="Calibri"><tspan y="14.2369799" x="0 7.657379 14.362946 19.272217 26.972474 34.701356">Python</tspan></text>
<text xml:space="preserve" transform="matrix(.75 0 0 .75 33.6 221.01258)" font-size="14.666667" font-family="Calibri"><tspan y="14.2369799" x="45.71501 51.447267 57.644685 62.453554 69.47395 77.17421 84.46655">scraper</tspan></text>
<text xml:space="preserve" transform="matrix(.75 0 0 .75 33.6 221.01258)" font-size="14.666667" font-family="Calibri"><tspan y="14.2369799" x="92.8896 97.65564">to</tspan></text>
<text xml:space="preserve" transform="matrix(.75 0 0 .75 33.6 221.01258)" font-size="14.666667" font-family="Calibri"><tspan y="14.2369799" x="108.69792 115.918659 122.323459 129.34386 132.70735 140.40761 147.29195 152.04367">evaluate</tspan></text>
<text xml:space="preserve" transform="matrix(.75 0 0 .75 33.6 221.01258)" font-size="14.666667" font-family="Calibri"><tspan y="14.2369799" x="162.64942">a</tspan></text>
<text xml:space="preserve" transform="matrix(.75 0 0 .75 33.6 221.01258)" font-size="14.666667" font-family="Calibri"><tspan y="14.2369799" x="172.98322 178.55075 183.46002 191.16028 198.86054 206.15288 213.71707 219.13481 221.89653">student&#x2019;s</tspan></text>
<text xml:space="preserve" transform="matrix(.75 0 0 .75 33.6 221.01258)" font-size="14.666667" font-family="Calibri"><tspan y="14.2369799" x="230.94219 238.64244 246.3427 249.70619 256.18263 263.47499 268.33399 274.06623 277.42973 282.339">university</tspan></text>
<text xml:space="preserve" transform="matrix(.75 0 0 .75 33.6 221.01258)" font-size="14.666667" font-family="Calibri"><tspan y="14.2369799" x="292.28633 299.98658 307.27894 314.17768 319.09397 326.3863">degree</tspan></text>
<text xml:space="preserve" transform="matrix(.75 0 0 .75 33.6 221.01258)" font-size="14.666667" font-family="Calibri"><tspan y="14.2369799" x="336.99205 344.6923 348.0558 355.07618 362.77644 370.47669 377.76905">planner</tspan></text>
<text xml:space="preserve" transform="matrix(.75 0 0 .75 33.6 221.01258)" font-size="14.666667" font-family="Calibri"><tspan y="14.2369799" x="386.19209 393.21247 400.91273">and</tspan></text>
<text xml:space="preserve" transform="matrix(.75 0 0 .75 33.6 221.01258)" font-size="14.666667" font-family="Calibri"><tspan y="14.2369799" x="411.9264 417.65864 425.3589 432.39369 439.17066 446.463 452.03056">suggest</tspan></text>
<text xml:space="preserve" transform="matrix(.75 0 0 .75 33.6 221.01258)" font-size="14.666667" font-family="Calibri"><tspan y="14.2369799" x="460.25328 466.32893 474.0578 479.16746 484.08375 491.3761 497.57353 502.4828 505.84629 513.5752 521.27548 527.0077">corrections.</tspan></text>
</g>
<g clip-path="url(#clip_8)">
<text xml:space="preserve" transform="matrix(.75 0 0 .75 452.09999 207.58484)" font-size="14.666667" font-family="Calibri" font-weight="bold"><tspan y="14.2369799" x="140.38895 148.29682 155.3101 160.39113 168.25598 176.13515">Python</tspan></text>
</g>
<g clip-path="url(#clip_9)">
<text xml:space="preserve" transform="matrix(.75 0 0 .75 33.6 247.86804)" font-size="14.666667" font-family="Calibri" font-weight="bold"><tspan y="14.2369799" x="0 8.881058 14.942459 22.821625 28.031464 35.896318">Acorns</tspan></text>
<text xml:space="preserve" transform="matrix(.75 0 0 .75 33.6 247.86804)" font-size="14.666667" font-family="Calibri" font-weight="bold"><tspan y="14.2369799" x="45.056474 53.93753 61.802385">App</tspan></text>
<text xml:space="preserve" transform="matrix(.75 0 0 .75 33.6 261.29579)" font-size="14.666667" font-family="Calibri"><tspan y="14.2369799" x="0 12.501801 19.794144">Web</tspan></text>
<text xml:space="preserve" transform="matrix(.75 0 0 .75 33.6 261.29579)" font-size="14.666667" font-family="Calibri"><tspan y="14.2369799" x="30.8078 37.8282 45.528459 53.228715 56.59221 59.955705 66.03137 72.91571 77.82498 81.18848 88.91736 96.617618">application,</tspan></text>
<text xml:space="preserve" transform="matrix(.75 0 0 .75 33.6 261.29579)" font-size="14.666667" font-family="Calibri"><tspan y="14.2369799" x="103.58792 110.60832 113.97182 117.33531 125.0069 135.48383 138.84732 146.54758">allowing</tspan></text>
<text xml:space="preserve" transform="matrix(.75 0 0 .75 33.6 261.29579)" font-size="14.666667" font-family="Calibri"><tspan y="14.2369799" x="156.75972 164.45998 169.3333 177.06218 183.96092 188.76979 195.79019 207.49802 219.20584 226.49819 231.35718">programmers</tspan></text>
<text xml:space="preserve" transform="matrix(.75 0 0 .75 33.6 261.29579)" font-size="14.666667" font-family="Calibri"><tspan y="14.2369799" x="240.40283 245.16887">to</tspan></text>
<text xml:space="preserve" transform="matrix(.75 0 0 .75 33.6 261.29579)" font-size="14.666667" font-family="Calibri"><tspan y="14.2369799" x="256.21116 262.2868 270.0157 273.37919 276.74269 283.76307 291.46333 299.1922 304.00108 310.8854 315.63716">collaborate</tspan></text>
<text xml:space="preserve" transform="matrix(.75 0 0 .75 33.6 261.29579)" font-size="14.666667" font-family="Calibri"><tspan y="14.2369799" x="326.24293 333.2633 340.96357">and</tspan></text>
<text xml:space="preserve" transform="matrix(.75 0 0 .75 33.6 261.29579)" font-size="14.666667" font-family="Calibri"><tspan y="14.2369799" x="351.97724 357.70948 365.40974 372.4301 377.3464">share</tspan></text>
<text xml:space="preserve" transform="matrix(.75 0 0 .75 33.6 261.29579)" font-size="14.666667" font-family="Calibri"><tspan y="14.2369799" x="387.95216 398.29304 406.0219 411.13157 417.79414 421.15763 428.8865 435.90693">workload</tspan></text>
<text xml:space="preserve" transform="matrix(.75 0 0 .75 33.6 261.29579)" font-size="14.666667" font-family="Calibri"><tspan y="14.2369799" x="446.9206 451.0854 458.81428">for</tspan></text>
<text xml:space="preserve" transform="matrix(.75 0 0 .75 33.6 261.29579)" font-size="14.666667" font-family="Calibri"><tspan y="14.2369799" x="467.2373 474.93757 482.22993 487.08894 492.82118 500.55006 508.2503 515.2707">personal</tspan></text>
<text xml:space="preserve" transform="matrix(.75 0 0 .75 33.6 274.7235)" font-size="14.666667" font-family="Calibri"><tspan y="14.2369799" x="0 7.7002565 12.573578 20.30246 23.809082 31.101426 37.298845 42.208116 47.94037">projects.</tspan></text>
</g>
<g clip-path="url(#clip_10)">
<text xml:space="preserve" transform="matrix(.75 0 0 .75 452.09999 247.86804)" font-size="14.666667" font-family="Calibri" font-weight="bold"><tspan y="14.2369799" x="62.571138 70.60759 77.98581 85.2209 91.35391 96.43494">React,</tspan></text>
<text xml:space="preserve" transform="matrix(.75 0 0 .75 452.09999 247.86804)" font-size="14.666667" font-family="Calibri" font-weight="bold"><tspan y="14.2369799" x="103.5269 108.37892 115.40633 122.12601">Java</tspan></text>
<text xml:space="preserve" transform="matrix(.75 0 0 .75 452.09999 247.86804)" font-size="14.666667" font-family="Calibri" font-weight="bold"><tspan y="14.2369799" x="132.6745 137.24027 144.16764 152.03249 157.24233 160.84198 168.70684 175.65567 180.22144">(Spring),</tspan></text>
<text xml:space="preserve" transform="matrix(.75 0 0 .75 452.09999 261.29579)" font-size="14.666667" font-family="Calibri" font-weight="bold"><tspan y="14.2369799" x="123.306919 136.11682 143.99599 151.86084 158.66645 166.54561 175.78449">MongoDB</tspan></text>
</g>
<g clip-path="url(#clip_11)">
<text xml:space="preserve" transform="matrix(.75 0 0 .75 33.6 301.57899)" font-size="16" font-family="Calibri" font-weight="bold"><tspan y="15.53125" x="0 8.512 17.367188 28.18319 35.52719 43.179689 50.74769 58.31569 62.58769 73.40369 83.947689 93.643688">PROFESSIONAL</tspan></text>
<text xml:space="preserve" transform="matrix(.75 0 0 .75 33.6 301.57899)" font-size="16" font-family="Calibri" font-weight="bold"><tspan y="15.53125" x="104.00781 111.81581 120.63181 129.14382 136.95182 145.95981 150.23181 158.03981 168.58382 177.04782">EXPERIENCE</tspan></text>
</g>
<g clip-path="url(#clip_12)">
<text xml:space="preserve" transform="matrix(.75 0 0 .75 33.6 330.40516)" font-size="14.666667" font-family="Calibri" font-weight="bold"><tspan y="14.2369799" x="0 7.714218 15.328598">BYU</tspan></text>
<text xml:space="preserve" transform="matrix(.75 0 0 .75 33.6 330.40516)" font-size="14.666667" font-family="Calibri" font-weight="bold"><tspan y="14.2369799" x="28.210068">-</tspan></text>
<text xml:space="preserve" transform="matrix(.75 0 0 .75 33.6 330.40516)" font-size="14.666667" font-family="Calibri" font-weight="bold"><tspan y="14.2369799" x="36.010515 42.81552 50.55075 57.807313 67.053348 79.64807 87.33316">PATHWAY</tspan></text>
<text xml:space="preserve" transform="matrix(.75 0 0 .75 33.6 343.8329)" font-size="14.666667" font-family="Calibri"><tspan y="14.2369799" x="0 8.480301 16.180558 22.800202 26.163697 31.89595 39.624834 44.73448 50.395174 56.23384 63.526185 69.7236 77.42386 85.124118 88.48761 94.56328 101.58368">Advisor/Technical</tspan></text>
<text xml:space="preserve" transform="matrix(.75 0 0 .75 33.6 343.8329)" font-size="14.666667" font-family="Calibri"><tspan y="14.2369799" x="108.260578 114.99472 122.69498 130.39524 138.09549 145.82437 150.93402">Support</tspan></text>
<text xml:space="preserve" transform="matrix(.75 0 0 .75 33.6 343.8329)" font-size="14.666667" font-family="Calibri"><tspan y="14.2369799" x="159.1567 163.6008 172.61783 179.91017 186.80892 191.7252 199.01755">(Degree</tspan></text>
<text xml:space="preserve" transform="matrix(.75 0 0 .75 33.6 343.8329)" font-size="14.666667" font-family="Calibri"><tspan y="14.2369799" x="209.62329 217.19474 220.55823 227.57863 235.27889 242.97914 250.27149">Planner</tspan></text>
<text xml:space="preserve" transform="matrix(.75 0 0 .75 33.6 343.8329)" font-size="14.666667" font-family="Calibri"><tspan y="14.2369799" x="258.69453 264.5332 271.82557 278.84596 290.55378">Team)</tspan></text>
</g>
<g clip-path="url(#clip_13)">
<text xml:space="preserve" transform="matrix(.75 0 0 .75 467.84999 330.40516)" font-size="14.666667" font-family="Calibri" font-weight="bold"><tspan y="14.2369799" x="59.677217 66.60458 73.839679 77.43933">Salt</tspan></text>
<text xml:space="preserve" transform="matrix(.75 0 0 .75 467.84999 330.40516)" font-size="14.666667" font-family="Calibri" font-weight="bold"><tspan y="14.2369799" x="85.833759 92.03117 99.266269 105.89993">Lake</tspan></text>
<text xml:space="preserve" transform="matrix(.75 0 0 .75 467.84999 330.40516)" font-size="14.666667" font-family="Calibri" font-weight="bold"><tspan y="14.2369799" x="116.59155 124.34906 127.948719 133.02974 139.0834">City,</tspan></text>
<text xml:space="preserve" transform="matrix(.75 0 0 .75 467.84999 330.40516)" font-size="14.666667" font-family="Calibri" font-weight="bold"><tspan y="14.2369799" x="146.17537 155.74344">UT</tspan></text>
<text xml:space="preserve" transform="matrix(.75 0 0 .75 467.84999 343.8329)" font-size="14.666667" font-family="Calibri" font-style="italic"><tspan y="14.2369799" x="40.089357 48.569658 56.105318">Aug</tspan></text>
<text xml:space="preserve" transform="matrix(.75 0 0 .75 467.84999 343.8329)" font-size="14.666667" font-family="Calibri" font-style="italic"><tspan y="14.2369799" x="66.95438 74.38269 81.811008 89.23932 96.66763 103.96713 110.59393 117.592868 125.06407">2021&#x2013;Sept</tspan></text>
<text xml:space="preserve" transform="matrix(.75 0 0 .75 467.84999 343.8329)" font-size="14.666667" font-family="Calibri" font-style="italic"><tspan y="14.2369799" x="133.28675 140.71506 148.14337 155.57169">2022</tspan></text>
</g>
<g clip-path="url(#clip_14)">
<text xml:space="preserve" transform="matrix(.75 0 0 .75 33.6 363.9745)" font-size="13.333333" font-family="ArialMT"><tspan y="14.2369799" x="19">&#x25cf;</tspan></text>
<text xml:space="preserve" transform="matrix(.75 0 0 .75 33.6 363.9745)" font-size="14.666667" font-family="Calibri"><tspan y="14.2369799" x="43 49.734148 57.434404 64.726749 70.924167 74.28766 81.30806 84.671558 88.03505 93.49513 100.787479">Specialized</tspan></text>
<text xml:space="preserve" transform="matrix(.75 0 0 .75 33.6 363.9745)" font-size="14.666667" font-family="Calibri"><tspan y="14.2369799" x="111.80113 115.16463">in</tspan></text>
<text xml:space="preserve" transform="matrix(.75 0 0 .75 33.6 363.9745)" font-size="14.666667" font-family="Calibri"><tspan y="14.2369799" x="126.17828 131.08756 135.96088 143.68976 151.39002 159.09027 162.45377 169.74611 175.47837 183.17862 190.9075 198.63639 203.54566 206.90915 214.6094">troubleshooting</tspan></text>
<text xml:space="preserve" transform="matrix(.75 0 0 .75 33.6 363.9745)" font-size="14.666667" font-family="Calibri"><tspan y="14.2369799" x="224.82155 232.38555 239.5276 248.93108 252.16576">BYU's</tspan></text>
<text xml:space="preserve" transform="matrix(.75 0 0 .75 33.6 363.9745)" font-size="14.666667" font-family="Calibri"><tspan y="14.2369799" x="261.21144 266.94367 274.23603 285.94386 293.2362 298.80375 303.55549 310.84785">semester</tspan></text>
<text xml:space="preserve" transform="matrix(.75 0 0 .75 33.6 363.9745)" font-size="14.666667" font-family="Calibri"><tspan y="14.2369799" x="319.2708 326.97108 330.33457 337.35499 345.05525 352.7555 356.119 363.81925">planning</tspan></text>
<text xml:space="preserve" transform="matrix(.75 0 0 .75 33.6 363.9745)" font-size="14.666667" font-family="Calibri"><tspan y="14.2369799" x="374.03138 379.7636 387.4925 391.9652 396.87449 407.1867 414.2071 419.12339 426.4157">software,</tspan></text>
<text xml:space="preserve" transform="matrix(.75 0 0 .75 33.6 363.9745)" font-size="14.666667" font-family="Calibri"><tspan y="14.2369799" x="433.38609 439.46174 447.1906 454.75483 459.6641 464.77375 468.13725 475.8375 483.53776 488.44703 491.81053 499.51078">contributing</tspan></text>
<text xml:space="preserve" transform="matrix(.75 0 0 .75 33.6 363.9745)" font-size="14.666667" font-family="Calibri"><tspan y="14.2369799" x="509.7229 514.48898">to</tspan></text>
<text xml:space="preserve" transform="matrix(.75 0 0 .75 33.6 363.9745)" font-size="14.666667" font-family="Calibri"><tspan y="14.2369799" x="525.53128 532.8236 540.52389 548.2241 555.2445 562.94479 569.1422 576.4346">enhanced</tspan></text>
<text xml:space="preserve" transform="matrix(.75 0 0 .75 33.6 363.9745)" font-size="14.666667" font-family="Calibri"><tspan y="14.2369799" x="587.4482 592.91549 599.4133 604.98086 609.73257 617.0249">system</tspan></text>
<text xml:space="preserve" transform="matrix(.75 0 0 .75 33.6 363.9745)" font-size="14.666667" font-family="Calibri"><tspan y="14.2369799" x="632.04617 639.7464 647.03878 652.14846 656.31326 664.0421 669.15176 680.85958 687.87997 695.5802 701.7776">performance</tspan></text>
<text xml:space="preserve" transform="matrix(.75 0 0 .75 33.6 363.9745)" font-size="14.666667" font-family="Calibri"><tspan y="14.2369799" x="712.3834 719.4038 727.10409">and</tspan></text>
<text xml:space="preserve" transform="matrix(.75 0 0 .75 33.6 377.40223)" font-size="14.666667" font-family="Calibri"><tspan y="14.2369799" x="43 48.567537 53.476808 61.177064 68.87732 76.16966 83.73386">student</tspan></text>
<text xml:space="preserve" transform="matrix(.75 0 0 .75 33.6 377.40223)" font-size="14.666667" font-family="Calibri"><tspan y="14.2369799" x="91.95653 99.656787 105.38904 112.68138">user</tspan></text>
<text xml:space="preserve" transform="matrix(.75 0 0 .75 33.6 377.40223)" font-size="14.666667" font-family="Calibri"><tspan y="14.2369799" x="121.10443 128.17478 134.52248 142.22274 149.51508 154.62473 157.98822 165.28057 172.98082 179.17824 186.47058">experience.</tspan></text>
<text xml:space="preserve" transform="matrix(.75 0 0 .75 33.6 393.82997)" font-size="13.333333" font-family="ArialMT"><tspan y="14.2369799" x="19">&#x25cf;</tspan></text>
<text xml:space="preserve" transform="matrix(.75 0 0 .75 33.6 393.82997)" font-size="14.666667" font-family="Calibri"><tspan y="14.2369799" x="43 50.81476 58.54364 70.251468 81.95929 89.659549 97.3598 100.7233 106.798969 113.683307 118.43503 125.72737">Communicated</tspan></text>
<text xml:space="preserve" transform="matrix(.75 0 0 .75 33.6 393.82997)" font-size="14.666667" font-family="Calibri"><tspan y="14.2369799" x="136.74103 143.90447 148.23397 152.34146 159.6338 165.83123 170.7405 174.10399 180.5804 187.87274 191.23624">effectively</tspan></text>
<text xml:space="preserve" transform="matrix(.75 0 0 .75 33.6 393.82997)" font-size="14.666667" font-family="Calibri"><tspan y="14.2369799" x="201.1836 211.66053 215.02402 219.93329">with</tspan></text>
<text xml:space="preserve" transform="matrix(.75 0 0 .75 33.6 393.82997)" font-size="14.666667" font-family="Calibri"><tspan y="14.2369799" x="230.94695 236.51448 241.42375 249.12401 256.82429 264.11665 271.68086 276.59013">students</tspan></text>
<text xml:space="preserve" transform="matrix(.75 0 0 .75 33.6 393.82997)" font-size="14.666667" font-family="Calibri"><tspan y="14.2369799" x="285.63575 290.4018">to</tspan></text>
<text xml:space="preserve" transform="matrix(.75 0 0 .75 33.6 393.82997)" font-size="14.666667" font-family="Calibri"><tspan y="14.2369799" x="301.44404 309.1443 316.84455 324.5448 331.83717 336.69618 342.2637 346.99397 354.01435 361.7146">understand</tspan></text>
<text xml:space="preserve" transform="matrix(.75 0 0 .75 33.6 393.82997)" font-size="14.666667" font-family="Calibri"><tspan y="14.2369799" x="372.72825 377.6375 385.33778 392.63014 395.99363">their</tspan></text>
<text xml:space="preserve" transform="matrix(.75 0 0 .75 33.6 393.82997)" font-size="14.666667" font-family="Calibri"><tspan y="14.2369799" x="404.41667 407.78016 413.5124 419.24464 426.9449 434.23725">issues</tspan></text>
<text xml:space="preserve" transform="matrix(.75 0 0 .75 33.6 393.82997)" font-size="14.666667" font-family="Calibri"><tspan y="14.2369799" x="443.2829 450.30329 458.00355">and</tspan></text>
<text xml:space="preserve" transform="matrix(.75 0 0 .75 33.6 393.82997)" font-size="14.666667" font-family="Calibri"><tspan y="14.2369799" x="469.0172 476.71748 481.5908 489.25523 495.87489 499.23838 506.93864">provide</tspan></text>
<text xml:space="preserve" transform="matrix(.75 0 0 .75 33.6 393.82997)" font-size="14.666667" font-family="Calibri"><tspan y="14.2369799" x="517.5444 522.4536 525.81716 537.52499 544.8173 548.1808 553.76919">timely,</tspan></text>
<text xml:space="preserve" transform="matrix(.75 0 0 .75 33.6 393.82997)" font-size="14.666667" font-family="Calibri"><tspan y="14.2369799" x="560.7395 568.43978 573.24868 580.26907 586.46646 591.37576 594.73928 600.81497 607.8353">practical</tspan></text>
<text xml:space="preserve" transform="matrix(.75 0 0 .75 33.6 393.82997)" font-size="14.666667" font-family="Calibri"><tspan y="14.2369799" x="614.51217 620.2444 627.97329 631.3368 639.03707 643.9463 647.3098 655.0387 662.73898 668.4712">solutions.</tspan></text>
<text xml:space="preserve" transform="matrix(.75 0 0 .75 33.6 410.2577)" font-size="13.333333" font-family="ArialMT"><tspan y="14.2369799" x="19">&#x25cf;</tspan></text>
<text xml:space="preserve" transform="matrix(.75 0 0 .75 33.6 410.2577)" font-size="14.666667" font-family="Calibri"><tspan y="14.2369799" x="43 50.81476 58.54364 61.907136 65.27063 72.29103 79.99129 87.72017 92.52904 99.413379 104.1651 111.45744">Collaborated</tspan></text>
<text xml:space="preserve" transform="matrix(.75 0 0 .75 33.6 410.2577)" font-size="14.666667" font-family="Calibri"><tspan y="14.2369799" x="122.4711 128.66852 132.03202 139.7609 145.49315 152.78549 156.14899">closely</tspan></text>
<text xml:space="preserve" transform="matrix(.75 0 0 .75 33.6 410.2577)" font-size="14.666667" font-family="Calibri"><tspan y="14.2369799" x="166.09635 176.57328 179.93677 184.84604">with</tspan></text>
<text xml:space="preserve" transform="matrix(.75 0 0 .75 33.6 410.2577)" font-size="14.666667" font-family="Calibri"><tspan y="14.2369799" x="195.8597 201.69837 208.9907 215.18813 222.88838 230.58864 233.95214 240.0278 247.0482">Technical</tspan></text>
<text xml:space="preserve" transform="matrix(.75 0 0 .75 33.6 410.2577)" font-size="14.666667" font-family="Calibri"><tspan y="14.2369799" x="253.7251 260.45924 268.1595 275.85975 283.56 291.28889 296.39854">Support</tspan></text>
<text xml:space="preserve" transform="matrix(.75 0 0 .75 33.6 410.2577)" font-size="14.666667" font-family="Calibri"><tspan y="14.2369799" x="304.62123 311.6416 319.34187">and</tspan></text>
<text xml:space="preserve" transform="matrix(.75 0 0 .75 33.6 410.2577)" font-size="14.666667" font-family="Calibri"><tspan y="14.2369799" x="330.35554 339.37257 346.5933 353.0697 360.36207 363.72557 371.45445 379.1547 390.86253 398.15486 405.71907">Development</tspan></text>
<text xml:space="preserve" transform="matrix(.75 0 0 .75 33.6 410.2577)" font-size="14.666667" font-family="Calibri"><tspan y="14.2369799" x="413.9417 418.69343 425.98579 433.00617 444.714 450.44624">teams,</tspan></text>
<text xml:space="preserve" transform="matrix(.75 0 0 .75 33.6 410.2577)" font-size="14.666667" font-family="Calibri"><tspan y="14.2369799" x="457.41658 464.70893 472.40919 478.14143 485.84169 490.95133 494.31483 502.01509">ensuring</tspan></text>
<text xml:space="preserve" transform="matrix(.75 0 0 .75 33.6 410.2577)" font-size="14.666667" font-family="Calibri"><tspan y="14.2369799" x="512.22726 519.2476 525.44509 531.64248 539.3427 544.1516 551.03598 555.78768">accurate</tspan></text>
<text xml:space="preserve" transform="matrix(.75 0 0 .75 33.6 410.2577)" font-size="14.666667" font-family="Calibri"><tspan y="14.2369799" x="566.3934 573.41378 581.114">and</tspan></text>
<text xml:space="preserve" transform="matrix(.75 0 0 .75 33.6 410.2577)" font-size="14.666667" font-family="Calibri"><tspan y="14.2369799" x="592.1277 599.29116 603.6206 608.0933 611.4568 617.6542 621.0177 628.31008 635.87429">efficient</tspan></text>
<text xml:space="preserve" transform="matrix(.75 0 0 .75 33.6 410.2577)" font-size="14.666667" font-family="Calibri"><tspan y="14.2369799" x="644.097 649.0133 656.30569 664.0059 671.7348 676.8445 681.7538 685.1173 692.81759">reporting</tspan></text>
<text xml:space="preserve" transform="matrix(.75 0 0 .75 33.6 410.2577)" font-size="14.666667" font-family="Calibri"><tspan y="14.2369799" x="703.02957 710.7584">of</tspan></text>
<text xml:space="preserve" transform="matrix(.75 0 0 .75 33.6 423.68544)" font-size="14.666667" font-family="Calibri"><tspan y="14.2369799" x="43 48.467287 54.96518 60.532716 65.28444 72.57678">system</tspan></text>
<text xml:space="preserve" transform="matrix(.75 0 0 .75 33.6 423.68544)" font-size="14.666667" font-family="Calibri"><tspan y="14.2369799" x="87.59801 95.29826 102.99852 109.89726 115.62952">bugs.</tspan></text>
<text xml:space="preserve" transform="matrix(.75 0 0 .75 33.6 440.11317)" font-size="13.333333" font-family="ArialMT"><tspan y="14.2369799" x="19">&#x25cf;</tspan></text>
<text xml:space="preserve" transform="matrix(.75 0 0 .75 33.6 440.11317)" font-size="14.666667" font-family="Calibri"><tspan y="14.2369799" x="43 52.403474 57.312746 60.67624 64.039737 67.40323 72.86331 80.155658">Utilized</tspan></text>
<text xml:space="preserve" transform="matrix(.75 0 0 .75 33.6 440.11317)" font-size="14.666667" font-family="Calibri"><tspan y="14.2369799" x="91.16931 96.73685 101.64612 106.51944 114.24832 121.94858">strong</tspan></text>
<text xml:space="preserve" transform="matrix(.75 0 0 .75 33.6 440.11317)" font-size="14.666667" font-family="Calibri"><tspan y="14.2369799" x="132.16072 139.86098 144.7343 152.46318 160.16344 163.52693 170.81928 182.5271 187.01415 192.7464 200.47528 203.83878 210.45842 213.82192 221.52217">problem-solving</tspan></text>
<text xml:space="preserve" transform="matrix(.75 0 0 .75 33.6 440.11317)" font-size="14.666667" font-family="Calibri"><tspan y="14.2369799" x="231.73432 237.46657 244.12915 247.49265 250.85614 254.21964">skills</tspan></text>
<text xml:space="preserve" transform="matrix(.75 0 0 .75 33.6 440.11317)" font-size="14.666667" font-family="Calibri"><tspan y="14.2369799" x="263.2653 268.0313">to</tspan></text>
<text xml:space="preserve" transform="matrix(.75 0 0 .75 33.6 440.11317)" font-size="14.666667" font-family="Calibri"><tspan y="14.2369799" x="279.0736 282.4371 290.13737 297.4297 304.9939 309.90318 313.26667 317.811">identify</tspan></text>
<text xml:space="preserve" transform="matrix(.75 0 0 .75 33.6 440.11317)" font-size="14.666667" font-family="Calibri"><tspan y="14.2369799" x="327.75837 334.77876 342.479">and</tspan></text>
<text xml:space="preserve" transform="matrix(.75 0 0 .75 33.6 440.11317)" font-size="14.666667" font-family="Calibri"><tspan y="14.2369799" x="353.49269 358.40898 365.7013 371.43354 379.1624 382.5259 389.00233">resolve</tspan></text>
<text xml:space="preserve" transform="matrix(.75 0 0 .75 33.6 440.11317)" font-size="14.666667" font-family="Calibri"><tspan y="14.2369799" x="399.6081 404.3598 411.65217 417.84959 425.54985 433.2501 436.6136 442.68928 449.70967">technical</tspan></text>
<text xml:space="preserve" transform="matrix(.75 0 0 .75 33.6 440.11317)" font-size="14.666667" font-family="Calibri"><tspan y="14.2369799" x="456.38655 459.75004 465.4823 471.21455 478.9148 486.20716 491.9394">issues,</tspan></text>
<text xml:space="preserve" transform="matrix(.75 0 0 .75 33.6 440.11317)" font-size="14.666667" font-family="Calibri"><tspan y="14.2369799" x="498.90974 506.2021 513.90237 521.6026 528.623 536.32327 542.5206 545.88418 553.5844">enhancing</tspan></text>
<text xml:space="preserve" transform="matrix(.75 0 0 .75 33.6 440.11317)" font-size="14.666667" font-family="Calibri"><tspan y="14.2369799" x="563.7965 571.46096 577.9374 585.22976 590.0386 597.05899 600.4225">overall</tspan></text>
<text xml:space="preserve" transform="matrix(.75 0 0 .75 33.6 440.11317)" font-size="14.666667" font-family="Calibri"><tspan y="14.2369799" x="607.09939 612.8316 620.5605 625.0332 629.9425 640.2547 647.2751 652.1914">software</tspan></text>
<text xml:space="preserve" transform="matrix(.75 0 0 .75 33.6 440.11317)" font-size="14.666667" font-family="Calibri"><tspan y="14.2369799" x="662.7972 667.2699 674.97018 682.6704 688.8678 693.7771 697.1406 704.8695 712.56979 719.59017 722.9536 726.31716 731.22647 736.8936">functionality.</tspan></text>
<text xml:space="preserve" transform="matrix(.75 0 0 .75 33.6 456.5409)" font-size="13.333333" font-family="ArialMT"><tspan y="14.2369799" x="19">&#x25cf;</tspan></text>
<text xml:space="preserve" transform="matrix(.75 0 0 .75 33.6 456.5409)" font-size="14.666667" font-family="Calibri"><tspan y="14.2369799" x="43 50.81476 58.54364 66.107837 71.017108 76.126758 79.49025 87.190509 94.89076 99.64249 106.93483">Contributed</tspan></text>
<text xml:space="preserve" transform="matrix(.75 0 0 .75 33.6 456.5409)" font-size="14.666667" font-family="Calibri"><tspan y="14.2369799" x="117.94849 122.71452">to</tspan></text>
<text xml:space="preserve" transform="matrix(.75 0 0 .75 33.6 456.5409)" font-size="14.666667" font-family="Calibri"><tspan y="14.2369799" x="133.7568">a</tspan></text>
<text xml:space="preserve" transform="matrix(.75 0 0 .75 33.6 456.5409)" font-size="14.666667" font-family="Calibri"><tspan y="14.2369799" x="144.0906 148.84233 156.13468 163.15508 174.8629 179.34995 187.0502 194.0706 199.80286 207.0952">team-based</tspan></text>
<text xml:space="preserve" transform="matrix(.75 0 0 .75 33.6 456.5409)" font-size="14.666667" font-family="Calibri"><tspan y="14.2369799" x="218.10886 225.4012 232.85797 239.47762 242.84111 247.71443 255.44332 263.14356 274.85139 282.14375 289.70796 294.61723">environment,</tspan></text>
<text xml:space="preserve" transform="matrix(.75 0 0 .75 33.6 456.5409)" font-size="14.666667" font-family="Calibri"><tspan y="14.2369799" x="301.58753 309.28779 314.1611 321.88999 333.5978 341.3267 346.23597 349.59947 357.2997">promoting</tspan></text>
<text xml:space="preserve" transform="matrix(.75 0 0 .75 33.6 456.5409)" font-size="14.666667" font-family="Calibri"><tspan y="14.2369799" x="367.51185 373.70927 377.07276 384.3651 391.3855">clear</tspan></text>
<text xml:space="preserve" transform="matrix(.75 0 0 .75 33.6 456.5409)" font-size="14.666667" font-family="Calibri"><tspan y="14.2369799" x="399.80854 405.88423 413.6131 425.32093 437.02876 444.729 452.42927 455.79277 461.8684 468.75276 473.66203 477.0255 484.7544">communication</tspan></text>
<text xml:space="preserve" transform="matrix(.75 0 0 .75 33.6 456.5409)" font-size="14.666667" font-family="Calibri"><tspan y="14.2369799" x="495.76808 502.78846 510.4887">and</tspan></text>
<text xml:space="preserve" transform="matrix(.75 0 0 .75 33.6 456.5409)" font-size="14.666667" font-family="Calibri"><tspan y="14.2369799" x="521.5024 528.66586 532.99539 537.10287 544.3952 550.59268 555.50198 558.8655 565.3419">effective</tspan></text>
<text xml:space="preserve" transform="matrix(.75 0 0 .75 33.6 456.5409)" font-size="14.666667" font-family="Calibri"><tspan y="14.2369799" x="575.9475 583.64779 588.5211 596.25 603.95028 607.3137 614.6061 626.3139 630.80099 636.5332 644.2621 647.6256 654.24526 657.60879 665.309">problem-solving</tspan></text>
<text xml:space="preserve" transform="matrix(.75 0 0 .75 33.6 456.5409)" font-size="14.666667" font-family="Calibri"><tspan y="14.2369799" x="675.5211 681.0886 685.9979 690.80679 697.6911 702.4428 709.73519 716.6339 719.99746 727.2898 733.02206">strategies.</tspan></text>
</g>
<g clip-path="url(#clip_15)">
<text xml:space="preserve" transform="matrix(.75 0 0 .75 33.6 489.39637)" font-size="14.666667" font-family="Calibri" font-weight="bold"><tspan y="14.2369799" x="0 13.282227 20.288208 27.072342 33.927858 43.266923 51.00215 58.258714">WESTGATE</tspan></text>
<text xml:space="preserve" transform="matrix(.75 0 0 .75 33.6 489.39637)" font-size="14.666667" font-family="Calibri" font-weight="bold"><tspan y="14.2369799" x="68.72133 76.972629 83.97861 90.905979 100.81755 108.92561">RESORT</tspan></text>
<text xml:space="preserve" transform="matrix(.75 0 0 .75 33.6 502.8241)" font-size="14.666667" font-family="Calibri"><tspan y="14.2369799" x="0 6.734146 13.754547 17.118042 24.410386">Sales</tspan></text>
<text xml:space="preserve" transform="matrix(.75 0 0 .75 33.6 502.8241)" font-size="14.666667" font-family="Calibri"><tspan y="14.2369799" x="33.45604 41.156114 48.448457 56.148714 61.065004 68.357349 74.0896 81.38194 88.94614 93.67638 100.560718 105.469989 108.83348 115.30989">Representative</tspan></text>
</g>
<g clip-path="url(#clip_16)">
<text xml:space="preserve" transform="matrix(.75 0 0 .75 467.84999 489.39637)" font-size="14.666667" font-family="Calibri" font-weight="bold"><tspan y="14.2369799" x="93.63344 103.54501 108.75485 112.35451 119.5896 127.45445 135.3193 142.98363">Orlando,</tspan></text>
<text xml:space="preserve" transform="matrix(.75 0 0 .75 467.84999 489.39637)" font-size="14.666667" font-family="Calibri" font-weight="bold"><tspan y="14.2369799" x="150.07559 156.80258">FL</tspan></text>
<text xml:space="preserve" transform="matrix(.75 0 0 .75 467.84999 502.8241)" font-size="14.666667" font-family="Calibri" font-style="italic"><tspan y="14.2369799" x="50.158327 54.831438 62.367097">Jun</tspan></text>
<text xml:space="preserve" transform="matrix(.75 0 0 .75 467.84999 502.8241)" font-size="14.666667" font-family="Calibri" font-style="italic"><tspan y="14.2369799" x="73.216159 80.64447 88.072788 95.5011 102.92941 110.22891 114.90202 122.43768">2019&#x2013;Jan</tspan></text>
<text xml:space="preserve" transform="matrix(.75 0 0 .75 467.84999 502.8241)" font-size="14.666667" font-family="Calibri" font-style="italic"><tspan y="14.2369799" x="133.28675 140.71506 148.14337 155.57169">2020</tspan></text>
</g>
<g clip-path="url(#clip_17)">
<text xml:space="preserve" transform="matrix(.75 0 0 .75 33.6 522.9657)" font-size="13.333333" font-family="ArialMT"><tspan y="14.2369799" x="19">&#x25cf;</tspan></text>
<text xml:space="preserve" transform="matrix(.75 0 0 .75 33.6 522.9657)" font-size="14.666667" font-family="Calibri"><tspan y="14.2369799" x="43 52.01703 59.309373 62.672868 66.03636 72.51277 79.805118 84.721408 92.01375">Delivered</tspan></text>
<text xml:space="preserve" transform="matrix(.75 0 0 .75 33.6 522.9657)" font-size="14.666667" font-family="Calibri"><tspan y="14.2369799" x="103.027408 110.31975 118.020008 124.64661 131.667 138.56575 141.92925 149.6295">engaging</tspan></text>
<text xml:space="preserve" transform="matrix(.75 0 0 .75 33.6 522.9657)" font-size="14.666667" font-family="Calibri"><tspan y="14.2369799" x="159.84165 165.5739 172.5943 175.9578 183.25014">sales</tspan></text>
<text xml:space="preserve" transform="matrix(.75 0 0 .75 33.6 522.9657)" font-size="14.666667" font-family="Calibri"><tspan y="14.2369799" x="192.29579 199.99605 204.91234 212.20468 217.93694 225.22928 232.79347 237.52371 244.40805 249.31732 252.68082 260.4097 268.10997">presentations</tspan></text>
<text xml:space="preserve" transform="matrix(.75 0 0 .75 33.6 522.9657)" font-size="14.666667" font-family="Calibri"><tspan y="14.2369799" x="277.1556 281.92164">to</tspan></text>
<text xml:space="preserve" transform="matrix(.75 0 0 .75 33.6 522.9657)" font-size="14.666667" font-family="Calibri"><tspan y="14.2369799" x="292.96394 300.66419 305.5375 313.2664 318.99867 326.6989 333.99128 340.1887 345.09797 348.46147 354.93788">prospective</tspan></text>
<text xml:space="preserve" transform="matrix(.75 0 0 .75 33.6 522.9657)" font-size="14.666667" font-family="Calibri"><tspan y="14.2369799" x="365.54359 371.741 379.44126 385.0088 389.77485 397.50373 409.21156 416.5039 421.3629">customers</tspan></text>
<text xml:space="preserve" transform="matrix(.75 0 0 .75 33.6 522.9657)" font-size="14.666667" font-family="Calibri"><tspan y="14.2369799" x="430.4085 435.17457">to</tspan></text>
<text xml:space="preserve" transform="matrix(.75 0 0 .75 33.6 522.9657)" font-size="14.666667" font-family="Calibri"><tspan y="14.2369799" x="446.21687 453.9171 457.2806 464.17936 471.8796 475.2431 478.6066 485.50535 493.06953">highlight</tspan></text>
<text xml:space="preserve" transform="matrix(.75 0 0 .75 33.6 522.9657)" font-size="14.666667" font-family="Calibri"><tspan y="14.2369799" x="501.29219 506.20146 513.90176">the</tspan></text>
<text xml:space="preserve" transform="matrix(.75 0 0 .75 33.6 522.9657)" font-size="14.666667" font-family="Calibri"><tspan y="14.2369799" x="524.50747 532.2077 539.50009 547.2003 554.3638 558.8365 562.19998 567.10928">benefits</tspan></text>
<text xml:space="preserve" transform="matrix(.75 0 0 .75 33.6 522.9657)" font-size="14.666667" font-family="Calibri"><tspan y="14.2369799" x="576.1549 583.8838">of</tspan></text>
<text xml:space="preserve" transform="matrix(.75 0 0 .75 33.6 522.9657)" font-size="14.666667" font-family="Calibri"><tspan y="14.2369799" x="591.6699 598.0747 605.0951 610.2047 613.56826 621.2971 628.9974">various</tspan></text>
<text xml:space="preserve" transform="matrix(.75 0 0 .75 33.6 522.9657)" font-size="14.666667" font-family="Calibri"><tspan y="14.2369799" x="638.0431 644.4479 651.46829 657.54397 664.4283 669.3375 672.70108 680.42996">vacation</tspan></text>
<text xml:space="preserve" transform="matrix(.75 0 0 .75 33.6 536.39346)" font-size="14.666667" font-family="Calibri"><tspan y="14.2369799" x="43 50.700258 55.573579 63.30246 70.2012 75.01007 82.03047 93.7383 99.47055">programs.</tspan></text>
<text xml:space="preserve" transform="matrix(.75 0 0 .75 33.6 552.82119)" font-size="13.333333" font-family="ArialMT"><tspan y="14.2369799" x="19">&#x25cf;</tspan></text>
<text xml:space="preserve" transform="matrix(.75 0 0 .75 33.6 552.82119)" font-size="14.666667" font-family="Calibri"><tspan y="14.2369799" x="43 49.734148 57.434404 63.63182 69.82924 77.12158 82.853839 88.45003 92.92276 100.62302 103.98651 107.350009">Successfully</tspan></text>
<text xml:space="preserve" transform="matrix(.75 0 0 .75 33.6 552.82119)" font-size="14.666667" font-family="Calibri"><tspan y="14.2369799" x="117.29736 124.99762 132.28997 139.08844 146.81732 151.7266 155.09009 161.97443 166.72615 174.0185">negotiated</tspan></text>
<text xml:space="preserve" transform="matrix(.75 0 0 .75 33.6 552.82119)" font-size="14.666667" font-family="Calibri"><tspan y="14.2369799" x="185.03215 192.7324 197.84206 201.20555 207.40297 210.76647 218.46672">pricing</tspan></text>
<text xml:space="preserve" transform="matrix(.75 0 0 .75 33.6 552.82119)" font-size="14.666667" font-family="Calibri"><tspan y="14.2369799" x="228.67887 235.69927 243.39952">and</tspan></text>
<text xml:space="preserve" transform="matrix(.75 0 0 .75 33.6 552.82119)" font-size="14.666667" font-family="Calibri"><tspan y="14.2369799" x="254.41318 260.48884 268.2177 275.78193 280.6912 285.50007 292.52046 298.71788">contract</tspan></text>
<text xml:space="preserve" transform="matrix(.75 0 0 .75 33.6 552.82119)" font-size="14.666667" font-family="Calibri"><tspan y="14.2369799" x="306.94056 311.69227 318.98463 324.09428 335.8021 341.53437">terms,</tspan></text>
<text xml:space="preserve" transform="matrix(.75 0 0 .75 33.6 552.82119)" font-size="14.666667" font-family="Calibri"><tspan y="14.2369799" x="348.50465 356.2049 363.49726 375.20509 382.93397 390.63423 396.20176 401.11103 405.9199 412.80424 417.7135 421.077 428.77726">demonstrating</tspan></text>
<text xml:space="preserve" transform="matrix(.75 0 0 .75 33.6 552.82119)" font-size="14.666667" font-family="Calibri"><tspan y="14.2369799" x="438.98939">a</tspan></text>
<text xml:space="preserve" transform="matrix(.75 0 0 .75 33.6 552.82119)" font-size="14.666667" font-family="Calibri"><tspan y="14.2369799" x="449.32319 454.89073 459.8 464.6733 472.4022 480.10246">strong</tspan></text>
<text xml:space="preserve" transform="matrix(.75 0 0 .75 33.6 552.82119)" font-size="14.666667" font-family="Calibri"><tspan y="14.2369799" x="490.3146 498.01487 505.71513 513.4154 520.70779 525.5668 531.1343 535.8645 542.8849 550.58517 558.2854 561.6489 569.3492">understanding</tspan></text>
<text xml:space="preserve" transform="matrix(.75 0 0 .75 33.6 552.82119)" font-size="14.666667" font-family="Calibri"><tspan y="14.2369799" x="579.5613 587.29019">of</tspan></text>
<text xml:space="preserve" transform="matrix(.75 0 0 .75 33.6 552.82119)" font-size="14.666667" font-family="Calibri"><tspan y="14.2369799" x="595.0763 601.4811 608.50149 611.865 619.56527 626.8576 631.34469 639.0449 646.0653 651.79757 659.0899">value-based</tspan></text>
<text xml:space="preserve" transform="matrix(.75 0 0 .75 33.6 552.82119)" font-size="14.666667" font-family="Calibri"><tspan y="14.2369799" x="670.1036 675.8358 683.1282 686.4917 689.8552 693.21878 700.919">selling</tspan></text>
<text xml:space="preserve" transform="matrix(.75 0 0 .75 33.6 566.2489)" font-size="14.666667" font-family="Calibri"><tspan y="14.2369799" x="43 48.567537 53.476808 58.285676 65.17001 69.92174 77.21408 84.11282 87.47632 94.76866 100.500919">strategies.</tspan></text>
<text xml:space="preserve" transform="matrix(.75 0 0 .75 33.6 582.67666)" font-size="13.333333" font-family="ArialMT"><tspan y="14.2369799" x="19">&#x25cf;</tspan></text>
<text xml:space="preserve" transform="matrix(.75 0 0 .75 33.6 582.67666)" font-size="14.666667" font-family="Calibri"><tspan y="14.2369799" x="43 49.53363 57.262514 62.830049 67.58177 74.874118 79.790409 87.08275">Fostered</tspan></text>
<text xml:space="preserve" transform="matrix(.75 0 0 .75 33.6 582.67666)" font-size="14.666667" font-family="Calibri"><tspan y="14.2369799" x="98.096408 103.012699 110.30504 113.66853 120.55287 125.46214 128.82564 136.55452 144.25478 149.98703 157.68729 161.05078 168.67943">relationships</tspan></text>
<text xml:space="preserve" transform="matrix(.75 0 0 .75 33.6 582.67666)" font-size="14.666667" font-family="Calibri"><tspan y="14.2369799" x="177.72509 188.20201 191.5655 196.47478">with</tspan></text>
<text xml:space="preserve" transform="matrix(.75 0 0 .75 33.6 582.67666)" font-size="14.666667" font-family="Calibri"><tspan y="14.2369799" x="207.48844 215.18869 222.91757 227.6693 234.96164 242.52584 247.4351 250.7986 257.819">potential</tspan></text>
<text xml:space="preserve" transform="matrix(.75 0 0 .75 33.6 582.67666)" font-size="14.666667" font-family="Calibri"><tspan y="14.2369799" x="264.4959 270.69334 274.05683 277.42033 284.71266 292.27687 297.18614 302.9184">clients,</tspan></text>
<text xml:space="preserve" transform="matrix(.75 0 0 .75 33.6 582.67666)" font-size="14.666667" font-family="Calibri"><tspan y="14.2369799" x="309.88868 315.96437 323.69325 331.25746 336.16673 341.27638 344.63987 352.34013 360.04039 364.94966 368.31315 376.0134">contributing</tspan></text>
<text xml:space="preserve" transform="matrix(.75 0 0 .75 33.6 582.67666)" font-size="14.666667" font-family="Calibri"><tspan y="14.2369799" x="386.22554 390.99159">to</tspan></text>
<text xml:space="preserve" transform="matrix(.75 0 0 .75 33.6 582.67666)" font-size="14.666667" font-family="Calibri"><tspan y="14.2369799" x="402.0338">a</tspan></text>
<text xml:space="preserve" transform="matrix(.75 0 0 .75 33.6 582.67666)" font-size="14.666667" font-family="Calibri"><tspan y="14.2369799" x="412.3676 420.06788 427.79676 433.529 436.8925 441.80177 445.16526 451.64167">positive</tspan></text>
<text xml:space="preserve" transform="matrix(.75 0 0 .75 33.6 582.67666)" font-size="14.666667" font-family="Calibri"><tspan y="14.2369799" x="462.24745 469.9477 474.75657 481.77699 489.47724">brand</tspan></text>
<text xml:space="preserve" transform="matrix(.75 0 0 .75 33.6 582.67666)" font-size="14.666667" font-family="Calibri"><tspan y="14.2369799" x="500.49089 507.56123 513.90896 521.6092 528.90158 534.0112 537.37478 544.6671 552.3674 558.5648">experience</tspan></text>
<text xml:space="preserve" transform="matrix(.75 0 0 .75 33.6 582.67666)" font-size="14.666667" font-family="Calibri"><tspan y="14.2369799" x="569.1704 576.1908 583.89108">and</tspan></text>
<text xml:space="preserve" transform="matrix(.75 0 0 .75 33.6 582.67666)" font-size="14.666667" font-family="Calibri"><tspan y="14.2369799" x="594.9047 601.1022 608.8024 614.37 619.13607 626.8649 638.57278 645.8651">customer</tspan></text>
<text xml:space="preserve" transform="matrix(.75 0 0 .75 33.6 582.67666)" font-size="14.666667" font-family="Calibri"><tspan y="14.2369799" x="654.2881 659.20437 666.4179 671.1696 678.462 686.0262 690.9354 694.29898 702.02786 709.7281">retention.</tspan></text>
</g>
<g clip-path="url(#clip_18)">
<text xml:space="preserve" transform="matrix(.75 0 0 .75 33.6 614.3114)" font-size="16" font-family="Calibri" font-weight="bold"><tspan y="15.53125" x="0 7.8080008 17.888 28.336003 36.800004 45.25 53.170003 57.442 68.258">EDUCATION</tspan></text>
</g>
<g clip-path="url(#clip_19)">
<text xml:space="preserve" transform="matrix(.75 0 0 .75 33.6 640.577)" font-size="14.666667" font-family="Calibri" font-weight="bold"><tspan y="14.2369799" x="0 8.215515 16.466813 20.374192 29.713257 38.95929 47.840349">BRIGHAM</tspan></text>
<text xml:space="preserve" transform="matrix(.75 0 0 .75 33.6 640.577)" font-size="14.666667" font-family="Calibri" font-weight="bold"><tspan y="14.2369799" x="63.963655 71.026599 80.93817 90.50624 100.16019">YOUNG</tspan></text>
<text xml:space="preserve" transform="matrix(.75 0 0 .75 33.6 640.577)" font-size="14.666667" font-family="Calibri" font-weight="bold"><tspan y="14.2369799" x="112.81265 122.38072 132.03467 135.94205 144.60842 151.75763 159.86569 166.79306 170.70044 177.957">UNIVERSITY</tspan></text>
<text xml:space="preserve" transform="matrix(.75 0 0 .75 33.6 640.577)" font-size="14.666667" font-family="Calibri" font-weight="bold"><tspan y="14.2369799" x="188.88478">-</tspan></text>
<text xml:space="preserve" transform="matrix(.75 0 0 .75 33.6 640.577)" font-size="14.666667" font-family="Calibri" font-weight="bold"><tspan y="14.2369799" x="196.68523 200.5926 209.48773 218.36879 227.61483">IDAHO</tspan></text>
<text xml:space="preserve" transform="matrix(.75 0 0 .75 33.6 654.00479)" font-size="14.666667" font-family="Calibri"><tspan y="14.2369799" x="0 7.9721987 14.9925999 21.190018 28.890275 36.182619 39.546113 47.274995">Bachelor</tspan></text>
<text xml:space="preserve" transform="matrix(.75 0 0 .75 33.6 654.00479)" font-size="14.666667" font-family="Calibri"><tspan y="14.2369799" x="55.698045 63.426927">of</tspan></text>
<text xml:space="preserve" transform="matrix(.75 0 0 .75 33.6 654.00479)" font-size="14.666667" font-family="Calibri"><tspan y="14.2369799" x="71.21306 77.947208 84.14462 87.50812 94.80046 102.50072 108.698139">Science</tspan></text>
<text xml:space="preserve" transform="matrix(.75 0 0 .75 33.6 654.00479)" font-size="14.666667" font-family="Calibri"><tspan y="14.2369799" x="119.30388 122.66737">in</tspan></text>
<text xml:space="preserve" transform="matrix(.75 0 0 .75 33.6 654.00479)" font-size="14.666667" font-family="Calibri"><tspan y="14.2369799" x="133.68103 140.41518 148.14406 152.61679 157.52606 167.83827 174.85868 179.77497">Software</tspan></text>
<text xml:space="preserve" transform="matrix(.75 0 0 .75 33.6 654.00479)" font-size="14.666667" font-family="Calibri"><tspan y="14.2369799" x="190.3807 197.53708 205.23734 212.13608 215.49958 223.19983 230.49217 237.78452 242.89417 246.25766 253.95792">Engineering</tspan></text>
<text xml:space="preserve" transform="matrix(.75 0 0 .75 33.6 667.4325)" font-size="14.666667" font-family="Calibri"><tspan y="14.2369799" x="0 7.156372 18.864197 26.564454 34.26471 41.28511 47.017366 50.38086">Emphasis</tspan></text>
<text xml:space="preserve" transform="matrix(.75 0 0 .75 33.6 667.4325)" font-size="14.666667" font-family="Calibri"><tspan y="14.2369799" x="59.426515 62.79001">in</tspan></text>
<text xml:space="preserve" transform="matrix(.75 0 0 .75 33.6 667.4325)" font-size="14.666667" font-family="Calibri"><tspan y="14.2369799" x="73.803668 80.53781 88.26669 92.739429 97.6487 107.96091 114.98131 119.8976">Software</tspan></text>
<text xml:space="preserve" transform="matrix(.75 0 0 .75 33.6 667.4325)" font-size="14.666667" font-family="Calibri"><tspan y="14.2369799" x="130.50334 139.52037 146.81272 152.54497 155.90847 162.8072">Design</tspan></text>
<text xml:space="preserve" transform="matrix(.75 0 0 .75 33.6 667.4325)" font-size="14.666667" font-family="Calibri"><tspan y="14.2369799" x="173.82086 180.84127 188.54152">and</tspan></text>
<text xml:space="preserve" transform="matrix(.75 0 0 .75 33.6 667.4325)" font-size="14.666667" font-family="Calibri"><tspan y="14.2369799" x="199.55518 212.05698 219.34932">Web</tspan></text>
<text xml:space="preserve" transform="matrix(.75 0 0 .75 33.6 667.4325)" font-size="14.666667" font-family="Calibri"><tspan y="14.2369799" x="230.36298 239.38 246.60074 253.07715 260.3695 263.733 271.46189 279.16215 290.86997 298.1623 305.7265 310.63578">Development.</tspan></text>
</g>
<g clip-path="url(#clip_20)">
<text xml:space="preserve" transform="matrix(.75 0 0 .75 462.59999 640.577)" font-size="14.666667" font-family="Calibri" font-weight="bold"><tspan y="14.2369799" x="99.91078 107.947238 115.09628 121.83043 129.69528 137.56014 142.5981 149.76178">Rexburg,</tspan></text>
<text xml:space="preserve" transform="matrix(.75 0 0 .75 462.59999 640.577)" font-size="14.666667" font-family="Calibri" font-weight="bold"><tspan y="14.2369799" x="156.85375 160.76113">ID</tspan></text>
</g>
<g clip-path="url(#clip_21)">
<text xml:space="preserve" transform="matrix(.75 0 0 .75 33.6 694.6395)" font-size="16" font-family="Calibri" font-weight="bold"><tspan y="15.53125" x="0 9.696 19.776001 29.856003 34.128004 42.048006 46.320005 57.136007 67.68001 77.37601">ADDITIONAL</tspan></text>
<text xml:space="preserve" transform="matrix(.75 0 0 .75 33.6 694.6395)" font-size="16" font-family="Calibri" font-weight="bold"><tspan y="15.53125" x="87.75781 95.32581 104.07781 108.349819 115.11781 121.88581">SKILLS</tspan></text>
</g>
<g clip-path="url(#clip_22)">
<text xml:space="preserve" transform="matrix(.75 0 0 .75 33.6 721.28799)" font-size="14.666667" font-family="ArialMT"><tspan y="14.2369799" x="19">&#x25cf;</tspan></text>
<text xml:space="preserve" transform="matrix(.75 0 0 .75 33.6 721.28799)" font-size="14.666667" font-family="Calibri"><tspan y="14.2369799" x="43 50.38521 58.085466 65.75705 76.23398 79.59747 86.88982 94.59007 101.367069">Knowledge</tspan></text>
<text xml:space="preserve" transform="matrix(.75 0 0 .75 33.6 721.28799)" font-size="14.666667" font-family="Calibri"><tspan y="14.2369799" x="111.97281 119.70169">of</tspan></text>
<text xml:space="preserve" transform="matrix(.75 0 0 .75 33.6 721.28799)" font-size="14.666667" font-family="Calibri"><tspan y="14.2369799" x="127.48782 137.19187 146.8959">OOP</tspan></text>
<text xml:space="preserve" transform="matrix(.75 0 0 .75 33.6 721.28799)" font-size="14.666667" font-family="Calibri"><tspan y="14.2369799" x="157.78075 165.481 170.59066 173.95415 181.6544 187.85182 191.21532 198.91558 202.27907 209.57141 215.30367">principles,</tspan></text>
<text xml:space="preserve" transform="matrix(.75 0 0 .75 33.6 721.28799)" font-size="14.666667" font-family="Calibri"><tspan y="14.2369799" x="222.27397 231.291 238.58335 244.3156 247.6791 254.57784">Design</tspan></text>
<text xml:space="preserve" transform="matrix(.75 0 0 .75 33.6 721.28799)" font-size="14.666667" font-family="Calibri"><tspan y="14.2369799" x="265.5915 272.84785 279.73219 284.43379 289.1855 296.47785 301.5875 309.28776 315.02003">Patterns,</tspan></text>
<text xml:space="preserve" transform="matrix(.75 0 0 .75 33.6 721.28799)" font-size="14.666667" font-family="Calibri"><tspan y="14.2369799" x="321.9903 329.01069 336.71095">and</tspan></text>
<text xml:space="preserve" transform="matrix(.75 0 0 .75 33.6 721.28799)" font-size="14.666667" font-family="Calibri"><tspan y="14.2369799" x="347.7246 356.74165 363.62599 368.3562">Data</tspan></text>
<text xml:space="preserve" transform="matrix(.75 0 0 .75 33.6 721.28799)" font-size="14.666667" font-family="Calibri"><tspan y="14.2369799" x="378.69 385.42414 390.3334 395.44306 403.1433 409.34074 414.25 421.95027 426.86656 434.15888 439.8911">Structures.</tspan></text>
<text xml:space="preserve" transform="matrix(.75 0 0 .75 33.6 738.77877)" font-size="13.333333" font-family="ArialMT"><tspan y="14.2369799" x="19">&#x25cf;</tspan></text>
<text xml:space="preserve" transform="matrix(.75 0 0 .75 33.6 738.77877)" font-size="14.666667" font-family="Calibri"><tspan y="14.2369799" x="43 52.403474 60.10373 63.467226">Unit</tspan></text>
<text xml:space="preserve" transform="matrix(.75 0 0 .75 33.6 738.77877)" font-size="14.666667" font-family="Calibri"><tspan y="14.2369799" x="71.689899 77.528568 84.82091 90.38844 95.297718 98.66121 106.361469">Testing</tspan></text>
<text xml:space="preserve" transform="matrix(.75 0 0 .75 33.6 738.77877)" font-size="14.666667" font-family="Calibri"><tspan y="14.2369799" x="116.57361 123.59401 131.29427">and</tspan></text>
<text xml:space="preserve" transform="matrix(.75 0 0 .75 33.6 738.77877)" font-size="14.666667" font-family="Calibri"><tspan y="14.2369799" x="142.30792 148.14659 155.43894 161.00647 165.46457 169.95162 178.96865 184.0783 187.44179 193.9182 201.21054">Test-Driven</tspan></text>
<text xml:space="preserve" transform="matrix(.75 0 0 .75 33.6 738.77877)" font-size="14.666667" font-family="Calibri"><tspan y="14.2369799" x="212.2242 221.24123 228.46196 234.93837 242.23072 245.59421 253.32309 261.02336 272.73118 280.0235 287.5877 292.49699">Development.</tspan></text>
<text xml:space="preserve" transform="matrix(.75 0 0 .75 33.6 756.2695)" font-size="14.666667" font-family="ArialMT"><tspan y="14.2369799" x="19">&#x25cf;</tspan></text>
<text xml:space="preserve" transform="matrix(.75 0 0 .75 33.6 756.2695)" font-size="14.666667" font-family="Calibri"><tspan y="14.2369799" x="43 50.156373 56.504076 64.20433 71.49667 76.60632 79.96982 87.26216 94.96242 101.159839">Experience</tspan></text>
<text xml:space="preserve" transform="matrix(.75 0 0 .75 33.6 756.2695)" font-size="14.666667" font-family="Calibri"><tspan y="14.2369799" x="111.76558 122.24251 125.606 130.51528">with</tspan></text>
<text xml:space="preserve" transform="matrix(.75 0 0 .75 33.6 756.2695)" font-size="14.666667" font-family="Calibri"><tspan y="14.2369799" x="141.52893 148.26308 158.12456">SQL</tspan></text>
<text xml:space="preserve" transform="matrix(.75 0 0 .75 33.6 756.2695)" font-size="14.666667" font-family="Calibri"><tspan y="14.2369799" x="167.5996 174.62 182.32025">and</tspan></text>
<text xml:space="preserve" transform="matrix(.75 0 0 .75 33.6 756.2695)" font-size="14.666667" font-family="Calibri"><tspan y="14.2369799" x="193.33391 202.79463 210.52352 217.25766 227.11914">NoSQL</tspan></text>
<text xml:space="preserve" transform="matrix(.75 0 0 .75 33.6 756.2695)" font-size="14.666667" font-family="Calibri"><tspan y="14.2369799" x="236.59418 244.29444 251.17877 255.90901 262.9294 270.62968 277.6501 283.38233 290.67469 296.40693">databases.</tspan></text>
</g>
<path transform="matrix(.75,0,0,.75,28.349999,88.426639)" stroke-width="1.3333334" stroke-linecap="butt" stroke-miterlimit="10" stroke-linejoin="miter" fill="none" stroke="#000000" d="M-.46666668 20.097819H755.5333"/>
<path transform="matrix(.75,0,0,.75,28.349999,88.426639)" stroke-width="1.3333334" stroke-linecap="butt" stroke-miterlimit="10" stroke-linejoin="miter" fill="none" stroke="#000000" d="M-.46666668 304.0978H755.5333"/>
<path transform="matrix(.75,0,0,.75,28.349999,88.426639)" stroke-width="1.3333334" stroke-linecap="butt" stroke-miterlimit="10" stroke-linejoin="miter" fill="none" stroke="#000000" d="M-.46666668 722.76449H755.5333"/>
<path transform="matrix(.75,0,0,.75,28.349999,88.426639)" stroke-width="1.3333334" stroke-linecap="butt" stroke-miterlimit="10" stroke-linejoin="miter" fill="none" stroke="#000000" d="M-.46666668 828.09786H755.5333"/>
</svg>
