<svg id="visual" viewBox="0 0 900 600" width="900" height="600" xmlns="http://www.w3.org/2000/svg" xmlns:xlink="http://www.w3.org/1999/xlink" version="1.1"><path d="M0 19L37.5 22C75 25 150 31 225 49C300 67 375 97 450 94C525 91 600 55 675 39C750 23 825 27 862.5 29L900 31L900 0L862.5 0C825 0 750 0 675 0C600 0 525 0 450 0C375 0 300 0 225 0C150 0 75 0 37.5 0L0 0Z" fill="#f5f5f5"></path><path d="M0 121L37.5 142C75 163 150 205 225 214C300 223 375 199 450 211C525 223 600 271 675 272C750 273 825 227 862.5 204L900 181L900 29L862.5 27C825 25 750 21 675 37C600 53 525 89 450 92C375 95 300 65 225 47C150 29 75 23 37.5 20L0 17Z" fill="#e8e8e8"></path><path d="M0 379L37.5 390C75 401 150 423 225 422C300 421 375 397 450 384C525 371 600 369 675 387C750 405 825 443 862.5 462L900 481L900 179L862.5 202C825 225 750 271 675 270C600 269 525 221 450 209C375 197 300 221 225 212C150 203 75 161 37.5 140L0 119Z" fill="#e1e1e1"></path><path d="M0 487L37.5 492C75 497 150 507 225 515C300 523 375 529 450 523C525 517 600 499 675 496C750 493 825 505 862.5 511L900 517L900 479L862.5 460C825 441 750 403 675 385C600 367 525 369 450 382C375 395 300 419 225 420C150 421 75 399 37.5 388L0 377Z" fill="#e8e8e8"></path><path d="M0 601L37.5 601C75 601 150 601 225 601C300 601 375 601 450 601C525 601 600 601 675 601C750 601 825 601 862.5 601L900 601L900 515L862.5 509C825 503 750 491 675 494C600 497 525 515 450 521C375 527 300 521 225 513C150 505 75 495 37.5 490L0 485Z" fill="#f5f5f5"></path></svg>