<svg id="visual" viewBox="0 0 900 600" width="900" height="600" xmlns="http://www.w3.org/2000/svg" xmlns:xlink="http://www.w3.org/1999/xlink" version="1.1"><rect x="0" y="0" width="900" height="600" fill="#f5f5f5"></rect><path d="M0 115L21.5 118.3C43 121.7 86 128.3 128.8 143.3C171.7 158.3 214.3 181.7 257.2 187.2C300 192.7 343 180.3 385.8 168.5C428.7 156.7 471.3 145.3 514.2 143.5C557 141.7 600 149.3 642.8 153.3C685.7 157.3 728.3 157.7 771.2 158.8C814 160 857 162 878.5 163L900 164L900 601L878.5 601C857 601 814 601 771.2 601C728.3 601 685.7 601 642.8 601C600 601 557 601 514.2 601C471.3 601 428.7 601 385.8 601C343 601 300 601 257.2 601C214.3 601 171.7 601 128.8 601C86 601 43 601 21.5 601L0 601Z" fill="#eeeeee"></path><path d="M0 201L21.5 200.3C43 199.7 86 198.3 128.8 213.2C171.7 228 214.3 259 257.2 261.5C300 264 343 238 385.8 232.3C428.7 226.7 471.3 241.3 514.2 255C557 268.7 600 281.3 642.8 286.8C685.7 292.3 728.3 290.7 771.2 284.3C814 278 857 267 878.5 261.5L900 256L900 601L878.5 601C857 601 814 601 771.2 601C728.3 601 685.7 601 642.8 601C600 601 557 601 514.2 601C471.3 601 428.7 601 385.8 601C343 601 300 601 257.2 601C214.3 601 171.7 601 128.8 601C86 601 43 601 21.5 601L0 601Z" fill="#e5e5e5"></path><path d="M0 302L21.5 312.7C43 323.3 86 344.7 128.8 357.7C171.7 370.7 214.3 375.3 257.2 362.5C300 349.7 343 319.3 385.8 310.2C428.7 301 471.3 313 514.2 327.7C557 342.3 600 359.7 642.8 353.7C685.7 347.7 728.3 318.3 771.2 307.3C814 296.3 857 303.7 878.5 307.3L900 311L900 601L878.5 601C857 601 814 601 771.2 601C728.3 601 685.7 601 642.8 601C600 601 557 601 514.2 601C471.3 601 428.7 601 385.8 601C343 601 300 601 257.2 601C214.3 601 171.7 601 128.8 601C86 601 43 601 21.5 601L0 601Z" fill="#dddddd"></path><path d="M0 417L21.5 419.7C43 422.3 86 427.7 128.8 426C171.7 424.3 214.3 415.7 257.2 404.8C300 394 343 381 385.8 376.2C428.7 371.3 471.3 374.7 514.2 377C557 379.3 600 380.7 642.8 389.3C685.7 398 728.3 414 771.2 417C814 420 857 410 878.5 405L900 400L900 601L878.5 601C857 601 814 601 771.2 601C728.3 601 685.7 601 642.8 601C600 601 557 601 514.2 601C471.3 601 428.7 601 385.8 601C343 601 300 601 257.2 601C214.3 601 171.7 601 128.8 601C86 601 43 601 21.5 601L0 601Z" fill="#d5d5d5"></path><path d="M0 503L21.5 505.2C43 507.3 86 511.7 128.8 513.2C171.7 514.7 214.3 513.3 257.2 512.7C300 512 343 512 385.8 512.8C428.7 513.7 471.3 515.3 514.2 514.7C557 514 600 511 642.8 511.8C685.7 512.7 728.3 517.3 771.2 515.5C814 513.7 857 505.3 878.5 501.2L900 497L900 601L878.5 601C857 601 814 601 771.2 601C728.3 601 685.7 601 642.8 601C600 601 557 601 514.2 601C471.3 601 428.7 601 385.8 601C343 601 300 601 257.2 601C214.3 601 171.7 601 128.8 601C86 601 43 601 21.5 601L0 601Z" fill="#cdcdcd"></path></svg>